<svg data-v-0dd9719b="" version="1.0" xmlns="http://www.w3.org/2000/svg" xmlns:xlink="http://www.w3.org/1999/xlink" width="100%" height="100%" viewBox="0 0 340.000000 250.000000" preserveAspectRatio="xMidYMid meet" color-interpolation-filters="sRGB" style="margin: auto;"> <rect data-v-0dd9719b="" x="0" y="0" width="100%" height="100%" fill="#fff" fill-opacity="1" class="background"></rect> <rect data-v-0dd9719b="" x="0" y="0" width="100%" height="100%" fill="url(#watermark)" fill-opacity="1" class="watermarklayer"></rect> <g data-v-0dd9719b="" fill="#d89b21" class="icon-text-wrapper icon-svg-group iconsvg" transform="translate(47.834999084472656,100.71875)"><g class="iconsvg-imagesvg" transform="translate(0,0.6301498413085938)"><g><rect fill="#d89b21" fill-opacity="0" stroke-width="2" x="0" y="0" width="60" height="47.30219797546592" class="image-rect"></rect> <svg x="0" y="0" width="60" height="47.30219797546592" filtersec="colorsb9402148844" class="image-svg-svg primary" style="overflow: visible;"><svg xmlns="http://www.w3.org/2000/svg" viewBox="0 0 73.62000274658203 58.040000915527344"><g><g><path fill="#c1c1c1" d="M48.89 0L36.81 28.83l12.27 29.21 12.22-28.9L73.62 0H48.89z"></path><path fill="#6b6b6b" d="M48.89 0L36.81 28.83l12.27 29.21h24.54L48.89 0z"></path><path fill="#d89b21" d="M0 58.04h24.73l12.08-28.82L24.54 0 12.32 28.91 0 58.04z"></path><path fill="#ffce00" d="M36.81 29.22L24.54 0H0l24.73 58.04 12.08-28.82z"></path></g></g></svg></svg> <!----></g></g> <g transform="translate(67,0)"><g data-gra="path-name" fill-rule="" class="tp-name iconsvg-namesvg" transform="translate(0,0)"><g transform="scale(1)"><g><path d="M22.11-19.34L22.11-4.78Q22.11-4.08 22.82-4.08L22.82-4.08 32.41-4.08Q33.19-4.08 33.26-4.82L33.26-4.82 34.03-12.34Q34.07-12.9 34.59-12.97L34.59-12.97 34.73-12.97Q35.44-12.87 35.47-12.3L35.47-12.3 35.47-12.2 34.7-4.68Q34.49-2.64 32.41-2.64L32.41-2.64 22.82-2.64Q20.67-2.64 20.67-4.78L20.67-4.78 20.67-34.03Q20.67-34.56 21.2-34.66L21.2-34.66 21.3-34.66Q21.97-34.66 22.08-34.17L22.08-34.17 22.11-34.14 22.11-20.88Q27.49-23.55 33.47-28.86L33.47-28.86Q34-29.21 34.38-28.83L34.38-28.83 34.42-28.79Q34.91-28.27 34.45-27.81L34.45-27.81Q28.09-22.15 22.29-19.37L22.29-19.37 22.11-19.34ZM13.36-2L13.36-13.71Q7.52-10.79 2.18-8.82L2.18-8.82Q1.62-8.61 1.37-9.14L1.37-9.14 1.37-9.18Q1.3-9.39 1.3-9.6L1.3-9.6Q1.3-9.91 1.58-10.13L1.58-10.13 1.69-10.16Q7.28-12.23 13.08-15.19L13.08-15.19 13.36-15.26 13.36-23.52 2.18-23.52Q1.65-23.52 1.55-24.05L1.55-24.05 1.55-24.15Q1.55-24.82 2.04-24.93L2.04-24.93 2.18-24.96 13.36-24.96 13.36-34.03Q13.36-34.56 13.89-34.66L13.89-34.66 13.99-34.66Q14.7-34.66 14.8-34.14L14.8-34.14 14.8-2Q14.8-1.48 14.27-1.37L14.27-1.37 14.13-1.37Q13.5-1.37 13.39-1.86L13.39-1.86 13.36-2ZM60.54-21.83L47.71-21.83Q46.69-21.83 46.34-20.88L46.34-20.88 46.27-20.39 46.27-17.47Q46.27-16.45 47.18-16.14L47.18-16.14 47.18-16.1 47.21-16.1 47.71-16.03 60.29-16.03Q61.31-16.03 61.63-16.95L61.63-16.95 61.73-17.47 61.77-20.39Q61.77-21.38 60.89-21.69L60.89-21.69Q60.71-21.8 60.54-21.83L60.54-21.83ZM60.26-14.59L54.7-14.59 54.67-5.87Q54.67-1.44 50.41-1.44L50.41-1.44Q49.78-1.44 49.04-1.55L49.04-1.55Q48.45-1.62 48.41-2.14L48.41-2.14 48.41-2.21Q48.41-2.81 48.9-2.95L48.9-2.95 49.11-2.99Q53.19-2.74 53.23-5.8L53.23-5.8 53.23-14.59 47.71-14.59Q45.98-14.59 45.14-16.1L45.14-16.1Q44.82-16.7 44.82-17.44L44.82-17.44 44.82-20.39Q44.82-22.08 46.27-22.89L46.27-22.89Q46.9-23.27 47.71-23.27L47.71-23.27 60.36-23.27Q62.02-23.27 62.82-21.87L62.82-21.87Q63.21-21.16 63.21-20.39L63.21-20.39 63.18-17.47Q63.18-15.82 61.73-14.98L61.73-14.98Q61.07-14.59 60.26-14.59L60.26-14.59ZM45.28-11.5Q45.56-11.95 46.09-11.74L46.09-11.74 46.16-11.71Q46.76-11.39 46.55-10.83L46.55-10.83 46.51-10.76Q43.73-6.36 38.18-4.01L38.18-4.01Q37.69-3.8 37.44-4.25L37.44-4.25 37.41-4.29 37.37-4.36Q37.27-4.61 37.27-4.78L37.27-4.78Q37.27-5.13 37.62-5.31L37.62-5.31 37.69-5.34Q42.82-7.49 45.28-11.5L45.28-11.5ZM61.03-10.55Q60.5-10.9 60.86-11.43L60.86-11.43 60.89-11.46Q61.28-12.02 61.8-11.78L61.8-11.78 61.84-11.74Q65.64-9.07 68.17-5.31L68.17-5.31Q68.48-4.75 67.99-4.43L67.99-4.43 67.96-4.39Q67.36-4.04 67.01-4.46L67.01-4.46 66.97-4.54Q64.62-8.02 61.03-10.55L61.03-10.55ZM54.7-34.03L54.67-29.46 69.82-29.46Q70.35-29.46 70.45-28.9L70.45-28.9 70.45-28.79Q70.45-28.16 69.96-28.05L69.96-28.05 69.93-28.02 37.97-28.02Q37.44-28.02 37.34-28.55L37.34-28.55 37.34-28.65Q37.34-29.32 37.83-29.43L37.83-29.43 37.97-29.46 53.23-29.46 53.3-34.03Q53.3-34.56 53.82-34.66L53.82-34.66 53.93-34.66Q54.56-34.66 54.67-34.17L54.67-34.17 54.7-34.14 54.7-34.03ZM96.71-19.93Q96.29-20.29 96.57-20.74L96.57-20.74 96.61-20.78 96.64-20.85Q97.03-21.38 97.52-21.13L97.52-21.13 97.63-21.06Q102.23-17.4 105.12-12.23L105.12-12.23 105.15-12.2Q105.43-11.67 104.94-11.36L104.94-11.36 104.91-11.32Q104.27-11 103.96-11.43L103.96-11.43 103.89-11.53Q101.11-16.45 96.71-19.93L96.71-19.93ZM79.95-20.64Q80.16-21.13 80.75-20.99L80.75-20.99 80.79-20.99 80.82-20.95Q81.46-20.67 81.32-20.11L81.32-20.11 81.28-20.07 81.28-20.04Q78.61-14.2 74.32-9.98L74.32-9.98Q73.9-9.56 73.44-9.95L73.44-9.95 73.37-10.02Q73.13-10.3 73.13-10.58L73.13-10.58Q73.13-10.79 73.27-10.97L73.27-10.97 73.3-11Q77.34-14.94 79.95-20.64L79.95-20.64ZM93.3-26.3L86.52-26.3 86.52-15.61Q86.52-6.22 78.61-1.48L78.61-1.48Q78.4-1.41 78.26-1.41L78.26-1.41Q77.98-1.41 77.8-1.69L77.8-1.69 77.77-1.72Q77.41-2.39 77.91-2.71L77.91-2.71 77.94-2.74Q85.04-7.07 85.08-15.57L85.08-15.57 85.08-26.3 74.21-26.3Q73.76-26.3 73.62-26.79L73.62-26.79Q73.58-26.82 73.58-26.89L73.58-26.89 73.58-26.93Q73.58-27.6 74.11-27.7L74.11-27.7 89.3-27.7 89.3-34.03Q89.3-34.56 89.82-34.66L89.82-34.66 89.93-34.66Q90.56-34.66 90.67-34.17L90.67-34.17 90.7-34.14 90.7-34.03 90.67-27.7 105.47-27.7Q106.03-27.7 106.14-27.18L106.14-27.18 106.14-27.07Q106.14-26.44 105.61-26.33L105.61-26.33 105.57-26.3 94.75-26.3 94.75-6.12Q94.75-1.3 90.07-1.3L90.07-1.3Q89.47-1.3 88.84-1.37L88.84-1.37Q88.31-1.37 88.21-1.9L88.21-1.9 88.21-2Q88.21-2.67 88.7-2.78L88.7-2.78 88.73-2.81 88.84-2.81Q93.27-2.67 93.3-6.05L93.3-6.05 93.3-26.3ZM121.75-13.18L130.32-13.18 130.32-18.04Q130.32-18.56 130.85-18.67L130.85-18.67 130.96-18.67Q131.63-18.67 131.73-18.18L131.73-18.18 131.77-18.14 131.77-13.18 139.92-13.18Q140.48-13.18 140.59-12.62L140.59-12.62 140.59-12.52Q140.59-11.88 140.06-11.78L140.06-11.78 140.03-11.74 131.77-11.74 131.77-4.57 142-4.57Q142.52-4.57 142.63-4.04L142.63-4.04 142.63-3.94Q142.63-3.27 142.14-3.16L142.14-3.16 142.1-3.13 120.02-3.13Q119.5-3.13 119.39-3.66L119.39-3.66 119.39-3.8Q119.39-4.43 119.88-4.54L119.88-4.54 119.92-4.57 130.32-4.57 130.32-11.74 121.85-11.74Q121.39-11.74 121.25-12.23L121.25-12.23 121.22-12.38Q121.22-13.08 121.75-13.18L121.75-13.18ZM121.75-29.18L130.32-29.18 130.32-34.03Q130.32-34.56 130.85-34.66L130.85-34.66 130.96-34.66Q131.63-34.66 131.73-34.17L131.73-34.17 131.77-34.14 131.77-29.18 139.92-29.18Q140.41-29.18 140.55-28.69L140.55-28.69Q140.59-28.65 140.59-28.58L140.59-28.58 140.59-28.55Q140.59-27.88 140.03-27.77L140.03-27.77 131.77-27.77 131.77-20.57 142-20.57Q142.52-20.57 142.63-20L142.63-20 142.63-19.9Q142.63-19.27 142.14-19.16L142.14-19.16 142.1-19.13 120.02-19.13Q119.5-19.13 119.39-19.65L119.39-19.65 119.39-19.76Q119.39-20.46 119.92-20.57L119.92-20.57 130.32-20.57 130.32-27.77 121.85-27.77Q121.32-27.77 121.22-28.3L121.22-28.3 121.22-28.41Q121.22-29.04 121.71-29.14L121.71-29.14 121.75-29.18ZM116.58-2.78L116.58-22.78Q113.84-19.34 110.32-16.7L110.32-16.7 110.29-16.66Q109.76-16.31 109.41-16.77L109.41-16.77 109.37-16.8Q109.16-17.09 109.16-17.33L109.16-17.33Q109.16-17.58 109.37-17.79L109.37-17.79 109.44-17.82Q116.96-23.52 120.34-32.48L120.34-32.48Q120.59-33.05 121.22-32.87L121.22-32.87Q121.82-32.66 121.75-32.03L121.75-32.03 121.71-32.03 121.71-31.96Q120.27-28.16 118.02-24.79L118.02-24.79 118.02-2.78Q118.02-2.21 117.46-2.11L117.46-2.11 117.35-2.11Q116.72-2.11 116.61-2.64L116.61-2.64 116.58-2.78ZM171.14-25.17L165.62-25.17 165.62-22.39 172.55-22.39 172.58-23.73Q172.58-24.71 171.63-25.07L171.63-25.07 171.14-25.17ZM172.55-20.95L165.62-20.95 165.62-18.07 171.07-18.07Q172.09-18.07 172.41-19.02L172.41-19.02 172.51-19.51 172.55-20.95ZM165.62-11.07L165.62-5.41Q170.58-3.34 177.01-3.23L177.01-3.23Q177.54-3.23 177.64-2.71L177.64-2.71 177.64-2.6Q177.64-1.93 177.15-1.83L177.15-1.83 177.12-1.79 177.01-1.79Q165.16-1.97 158.27-8.58L158.27-8.58 158.17-8.68Q156.83-4.29 153.56-1.27L153.56-1.27Q153.35-1.05 153.14-1.05L153.14-1.05Q152.93-1.05 152.68-1.3L152.68-1.3Q152.19-1.86 152.61-2.32L152.61-2.32 152.65-2.36Q157.15-6.57 157.64-13.71L157.64-13.71 157.64-13.75Q157.64-14.27 158.13-14.38L158.13-14.38 158.34-14.38Q158.94-14.38 159.05-13.82L159.05-13.82 159.08-13.68Q158.91-11.53 158.45-9.63L158.45-9.63Q158.98-9.95 159.26-9.56L159.26-9.56Q161.54-7.45 164.18-6.08L164.18-6.08 164.18-16.63 157.39-16.63Q156.87-16.63 156.73-17.16L156.73-17.16 156.73-17.3Q156.73-17.93 157.25-18.04L157.25-18.04 157.29-18.07 164.18-18.07 164.18-20.95 155.81-20.95Q155.29-20.95 155.14-21.48L155.14-21.48 155.14-21.59Q155.14-22.25 155.67-22.36L155.67-22.36 155.71-22.39 164.18-22.39 164.18-25.17 157.46-25.17Q156.94-25.17 156.83-25.7L156.83-25.7 156.83-25.8Q156.83-26.47 157.32-26.58L157.32-26.58 157.36-26.61 164.18-26.61 164.18-29.32 156.41-29.32Q155.88-29.32 155.78-29.85L155.78-29.85 155.78-29.95Q155.78-30.59 156.27-30.69L156.27-30.69 156.3-30.73 164.18-30.73 164.18-34.03Q164.18-34.49 164.71-34.63L164.71-34.63Q164.78-34.66 164.85-34.66L164.85-34.66Q165.52-34.66 165.62-34.14L165.62-34.14 165.62-30.73 176.34-30.73Q176.87-30.73 176.98-30.2L176.98-30.2 176.98-30.09Q176.98-29.43 176.45-29.32L176.45-29.32 165.62-29.32 165.62-26.61 171.14-26.61Q172.83-26.61 173.67-25.14L173.67-25.14Q174.02-24.5 174.02-23.77L174.02-23.77 174.02-23.73 173.99-22.39 178-22.39Q178.52-22.39 178.63-21.87L178.63-21.87 178.63-21.73Q178.63-21.09 178.14-20.99L178.14-20.99 178.1-20.95 173.99-20.95 173.95-19.51Q173.95-17.89 172.55-17.02L172.55-17.02Q171.88-16.63 171.07-16.63L171.07-16.63 165.62-16.63 165.62-12.52 176.52-12.52Q177.05-12.52 177.15-11.99L177.15-11.99 177.15-11.88Q177.15-11.21 176.66-11.11L176.66-11.11 176.63-11.07 165.62-11.07ZM150.33-5.06L150.33-15.68 146.64-13.92Q146.07-13.68 145.83-14.2L145.83-14.2 145.79-14.27Q145.48-14.94 146-15.22L146-15.22 146.04-15.22Q148.22-16.21 150.33-17.33L150.33-17.33 150.33-25.35 145.97-25.35Q145.44-25.35 145.34-25.88L145.34-25.88 145.34-25.98Q145.34-26.65 145.83-26.75L145.83-26.75 145.97-26.79 150.33-26.79 150.33-34.03Q150.33-34.56 150.89-34.66L150.89-34.66 151-34.66Q151.63-34.66 151.73-34.17L151.73-34.17 151.77-34.14 151.77-26.79 156.16-26.79Q156.69-26.79 156.83-26.23L156.83-26.23 156.83-26.12Q156.83-25.49 156.3-25.38L156.3-25.38 156.27-25.35 151.77-25.35 151.77-18.11Q153.6-19.13 155.39-20.21L155.39-20.21Q155.95-20.57 156.27-20.04L156.27-20.04Q156.69-19.41 156.16-19.02L156.16-19.02Q153.42-17.37 151.77-16.45L151.77-16.45 151.77-5.06Q151.77-1.27 148.08-1.27L148.08-1.27Q147.52-1.27 146.88-1.37L146.88-1.37Q146.36-1.37 146.21-1.9L146.21-1.9 146.21-2Q146.21-2.67 146.74-2.78L146.74-2.78 146.88-2.81Q150.33-2.67 150.33-5.06L150.33-5.06Z" transform="translate(-1.2999999523162842, 34.65999984741211)"></path></g> <!----> <!----> <!----> <!----> <!----> <!----> <!----></g></g> <g data-gra="path-slogan" fill-rule="" class="tp-slogan iconsvg-slogansvg" fill="#d89b21" transform="translate(41.529998779296875,39.61000061035156)"><!----> <!----> <g transform="scale(1, 1)"><g transform="scale(1)"><path d="M4.13-7.64L2.06-7.64L2.06-4.97L4.13-4.97Q5.95-4.92 5.91-6.38L5.91-6.38Q5.91-7.64 4.13-7.64L4.13-7.64ZM4.59 0L0.89 0L0.89-8.58L4.69-8.58Q6.98-8.48 7.08-6.42L7.08-6.42Q7.08-5.16 5.95-4.64L5.95-4.64Q7.55-4.08 7.55-2.53L7.55-2.53Q7.41-0.09 4.59 0L4.59 0ZM4.31-3.98L2.06-3.98L2.06-0.98L4.55-0.98Q6.33-1.03 6.38-2.53L6.38-2.53Q6.38-3.98 4.31-3.98L4.31-3.98ZM10.17-1.03L15.33-1.03L15.33 0L9 0L9-8.58L15.23-8.58L15.23-7.59L10.17-7.59L10.17-4.92L14.86-4.92L14.86-3.89L10.17-3.89L10.17-1.03ZM17.02-8.58L18.19-8.58L18.19 0L17.02 0L17.02-8.58ZM19.45-1.92L19.45-2.77L20.53-2.77L20.53-2.16Q20.53-0.75 21.84-0.75L21.84-0.75Q23.20-0.75 23.20-2.25L23.20-2.25L23.20-8.58L24.38-8.58L24.38-2.30Q24.33 0.09 21.89 0.14L21.89 0.14Q19.59 0.09 19.45-1.92L19.45-1.92ZM26.34-8.58L27.52-8.58L27.52 0L26.34 0L26.34-8.58ZM30.89-8.58L35.20-1.64L35.20-8.58L36.33-8.58L36.33 0L35.02 0L30.66-6.94L30.61-6.94L30.61 0L29.48 0L29.48-8.58L30.89-8.58ZM44.53-3.61L41.91-3.61L41.91-4.59L45.66-4.59L45.66 0L44.91 0L44.63-1.08Q43.64 0.09 41.81 0.14L41.81 0.14Q40.08 0.14 39.14-0.75L39.14-0.75Q37.73-2.06 37.78-4.36L37.78-4.36Q38.11-8.63 41.86-8.81L41.86-8.81Q45.05-8.63 45.52-6L45.52-6L44.39-6Q43.92-7.78 41.81-7.83L41.81-7.83Q39.14-7.64 39-4.31L39-4.31Q39-0.75 41.86-0.75L41.86-0.75Q42.89-0.75 43.64-1.31L43.64-1.31Q44.58-2.06 44.53-3.61L44.53-3.61ZM57.70-8.58L54.47-3.47L54.47 0L53.30 0L53.30-3.47L50.06-8.58L51.42-8.58L53.86-4.45L56.34-8.58L57.70-8.58ZM58.92-8.58L60.09-8.58L60.09 0L58.92 0L58.92-8.58ZM61.36-1.92L61.36-2.77L62.44-2.77L62.44-2.16Q62.44-0.75 63.75-0.75L63.75-0.75Q65.11-0.75 65.11-2.25L65.11-2.25L65.11-8.58L66.28-8.58L66.28-2.30Q66.23 0.09 63.80 0.14L63.80 0.14Q61.50 0.09 61.36-1.92L61.36-1.92ZM68.25-8.58L69.42-8.58L69.42 0L68.25 0L68.25-8.58ZM77.06 0L76.22-2.48L72.75-2.48L71.86 0L70.69 0L73.92-8.58L75.23-8.58L78.33 0L77.06 0ZM74.48-7.31L73.13-3.52L75.80-3.52L74.53-7.31L74.48-7.31ZM78.66-1.92L78.66-2.77L79.73-2.77L79.73-2.16Q79.73-0.75 81.05-0.75L81.05-0.75Q82.41-0.75 82.41-2.25L82.41-2.25L82.41-8.58L83.58-8.58L83.58-2.30Q83.53 0.09 81.09 0.14L81.09 0.14Q78.80 0.09 78.66-1.92L78.66-1.92ZM85.55-8.58L86.72-8.58L86.72 0L85.55 0L85.55-8.58ZM90-1.03L95.16-1.03L95.16 0L88.83 0L88.83-8.58L95.06-8.58L95.06-7.59L90-7.59L90-4.92L94.69-4.92L94.69-3.89L90-3.89L90-1.03Z" transform="translate(-0.890625, 8.8125)"></path></g></g></g></g></g><defs v-gra="od"></defs></svg>